<mxfile host="app.diagrams.net" modified="2022-10-14T07:22:21.524Z" agent="5.0 (Windows NT 10.0; Win64; x64) AppleWebKit/537.36 (KHTML, like Gecko) Chrome/106.0.0.0 Safari/537.36" etag="E2wJaDaMfeV8Fsz3DfQl" version="20.2.3" type="github">
  <diagram id="l3yaukHai6XoBSTXBMLs" name="Page-1">
    <mxGraphModel dx="1422" dy="794" grid="1" gridSize="10" guides="1" tooltips="1" connect="1" arrows="1" fold="1" page="1" pageScale="1" pageWidth="850" pageHeight="1100" math="0" shadow="0">
      <root>
        <mxCell id="0" />
        <mxCell id="1" parent="0" />
        <mxCell id="yHPXtz2bew053-zXA0xH-8" style="edgeStyle=orthogonalEdgeStyle;rounded=0;orthogonalLoop=1;jettySize=auto;html=1;exitX=0;exitY=0.25;exitDx=0;exitDy=0;entryX=0;entryY=0.5;entryDx=0;entryDy=0;endArrow=ERmany;endFill=0;" edge="1" parent="1" source="yHPXtz2bew053-zXA0xH-5" target="yHPXtz2bew053-zXA0xH-6">
          <mxGeometry relative="1" as="geometry" />
        </mxCell>
        <mxCell id="yHPXtz2bew053-zXA0xH-9" style="edgeStyle=orthogonalEdgeStyle;rounded=0;orthogonalLoop=1;jettySize=auto;html=1;entryX=0.456;entryY=-0.022;entryDx=0;entryDy=0;entryPerimeter=0;endArrow=block;endFill=1;startArrow=none;" edge="1" parent="1" source="yHPXtz2bew053-zXA0xH-11" target="yHPXtz2bew053-zXA0xH-7">
          <mxGeometry relative="1" as="geometry">
            <Array as="points">
              <mxPoint x="280" y="410" />
              <mxPoint x="282" y="410" />
            </Array>
          </mxGeometry>
        </mxCell>
        <mxCell id="yHPXtz2bew053-zXA0xH-5" value="&lt;div style=&quot;box-sizing:border-box;width:100%;background:#e4e4e4;padding:2px;&quot;&gt;X&lt;/div&gt;&lt;table style=&quot;width:100%;font-size:1em;&quot; cellpadding=&quot;2&quot; cellspacing=&quot;0&quot;&gt;&lt;tbody&gt;&lt;tr&gt;&lt;td&gt;PK&lt;/td&gt;&lt;td&gt;&lt;font color=&quot;#3399ff&quot;&gt;_id&lt;/font&gt;&lt;/td&gt;&lt;/tr&gt;&lt;tr&gt;&lt;td&gt;&lt;br&gt;&lt;/td&gt;&lt;td&gt;&lt;/td&gt;&lt;/tr&gt;&lt;/tbody&gt;&lt;/table&gt;" style="verticalAlign=top;align=left;overflow=fill;html=1;" vertex="1" parent="1">
          <mxGeometry x="200" y="230" width="180" height="90" as="geometry" />
        </mxCell>
        <mxCell id="yHPXtz2bew053-zXA0xH-6" value="&lt;div style=&quot;box-sizing:border-box;width:100%;background:#e4e4e4;padding:2px;&quot;&gt;Y&lt;table style=&quot;background-color: initial; font-size: 1em; width: 100%;&quot; cellpadding=&quot;2&quot; cellspacing=&quot;0&quot;&gt;&lt;tbody&gt;&lt;tr&gt;&lt;td&gt;PK&lt;/td&gt;&lt;td&gt;&lt;font color=&quot;#3399ff&quot;&gt;_id&lt;/font&gt;&lt;/td&gt;&lt;/tr&gt;&lt;tr&gt;&lt;td&gt;FK1&lt;/td&gt;&lt;td&gt;&lt;font color=&quot;#3399ff&quot;&gt;x_id&lt;/font&gt;&lt;/td&gt;&lt;/tr&gt;&lt;tr&gt;&lt;td&gt;&lt;/td&gt;&lt;td&gt;&lt;br&gt;&lt;/td&gt;&lt;/tr&gt;&lt;/tbody&gt;&lt;/table&gt;&lt;/div&gt;" style="verticalAlign=top;align=left;overflow=fill;html=1;" vertex="1" parent="1">
          <mxGeometry x="480" y="230" width="180" height="90" as="geometry" />
        </mxCell>
        <mxCell id="yHPXtz2bew053-zXA0xH-7" value="&lt;div style=&quot;box-sizing:border-box;width:100%;background:#e4e4e4;padding:2px;&quot;&gt;Populated X&lt;/div&gt;&lt;table style=&quot;width:100%;font-size:1em;&quot; cellpadding=&quot;2&quot; cellspacing=&quot;0&quot;&gt;&lt;tbody&gt;&lt;tr&gt;&lt;td&gt;PK&lt;/td&gt;&lt;td&gt;&lt;font color=&quot;#3399ff&quot;&gt;_id&lt;/font&gt;&lt;/td&gt;&lt;/tr&gt;&lt;tr&gt;&lt;td&gt;Virtual&lt;/td&gt;&lt;td&gt;&lt;font color=&quot;#ff3399&quot;&gt;y_count&lt;/font&gt;&lt;/td&gt;&lt;/tr&gt;&lt;/tbody&gt;&lt;/table&gt;" style="verticalAlign=top;align=left;overflow=fill;html=1;" vertex="1" parent="1">
          <mxGeometry x="200" y="450" width="180" height="90" as="geometry" />
        </mxCell>
        <mxCell id="yHPXtz2bew053-zXA0xH-10" value="&lt;b&gt;&lt;font style=&quot;font-size: 23px;&quot;&gt;Virtual Populate&lt;/font&gt;&lt;/b&gt;" style="text;html=1;align=center;verticalAlign=middle;resizable=0;points=[];autosize=1;strokeColor=none;fillColor=none;" vertex="1" parent="1">
          <mxGeometry x="325" y="130" width="200" height="40" as="geometry" />
        </mxCell>
        <mxCell id="yHPXtz2bew053-zXA0xH-11" value="&lt;div style=&quot;background-color: rgb(30, 30, 30); font-family: Consolas, &amp;quot;Courier New&amp;quot;, monospace; font-size: 14px; line-height: 19px;&quot;&gt;&lt;font color=&quot;#4ec9b0&quot;&gt;X&lt;/font&gt;&lt;span style=&quot;color: rgb(212, 212, 212);&quot;&gt;.&lt;span style=&quot;color: #dcdcaa;&quot;&gt;findById&lt;/span&gt;(&lt;span style=&quot;color: #9cdcfe;&quot;&gt;id&lt;/span&gt;).&lt;span style=&quot;color: #dcdcaa;&quot;&gt;populate&lt;/span&gt;([&lt;span style=&quot;color: #ce9178;&quot;&gt;&#39;y_count&#39;&lt;/span&gt;])&lt;/span&gt;&lt;/div&gt;" style="text;html=1;align=center;verticalAlign=middle;resizable=0;points=[];autosize=1;strokeColor=none;fillColor=none;fontSize=23;fontColor=#FF3399;" vertex="1" parent="1">
          <mxGeometry x="140" y="370" width="300" height="30" as="geometry" />
        </mxCell>
        <mxCell id="yHPXtz2bew053-zXA0xH-12" value="" style="edgeStyle=orthogonalEdgeStyle;rounded=0;orthogonalLoop=1;jettySize=auto;html=1;entryX=0.456;entryY=-0.022;entryDx=0;entryDy=0;entryPerimeter=0;endArrow=none;endFill=1;" edge="1" parent="1" source="yHPXtz2bew053-zXA0xH-5" target="yHPXtz2bew053-zXA0xH-11">
          <mxGeometry relative="1" as="geometry">
            <mxPoint x="290" y="320" as="sourcePoint" />
            <mxPoint x="417.0799999999999" y="398.02" as="targetPoint" />
          </mxGeometry>
        </mxCell>
      </root>
    </mxGraphModel>
  </diagram>
</mxfile>
